# xmcd CD database file
#
# Track frame offsets:
#	150
#	16262
#	33929
#	51389
#	72639
#	102343
#	119301
#	145187
#	170644
#	195457
#	218042
#	236981
#	255643
#	274498
#	293219
#	315146
#	334030
#
# Disc length: 4674 seconds
#
# Revision: 0
# Processed by: cddbd v1.5.1PL0 Copyright (c) Steve Scherf et al.
# Submitted via: NeoAudio 9.9.9
#
DISCID=04124011
DTITLE=Varios - Salsa Asesina
DYEAR=1999
DGENRE=Salsa
TTITLE0=Guede Zaina
TTITLE1=Nada Contigo
TTITLE2=Quiereme
TTITLE3=Se Me Fue
TTITLE4=Lagrimas
TTITLE5=Sigue Tu Camino
TTITLE6=El Artista Famoso
TTITLE7=El Cariño Es Como Una Flor
TTITLE8=Mentirosa
TTITLE9=Feo Pero Sabroso
TTITLE10=Barranquillero Arrebatao
TTITLE11=Castigala
TTITLE12=El Pregonero
TTITLE13=Ramona
TTITLE14=No Hay Dolor
TTITLE15=A Cali
TTITLE16=Las Caleñas Son Como Las Flores
EXTD=YEAR: 1999
EXTT0=
EXTT1=
EXTT2=
EXTT3=
EXTT4=
EXTT5=
EXTT6=
EXTT7=
EXTT8=
EXTT9=
EXTT10=
EXTT11=
EXTT12=
EXTT13=
EXTT14=
EXTT15=
EXTT16=
PLAYORDER=
